<svg width="32" height="32" viewBox="0 0 32 32" fill="none" xmlns="http://www.w3.org/2000/svg">
<path fill-rule="evenodd" clip-rule="evenodd" d="M16 5.99996C10.4772 5.99996 6 10.4771 6 16C6 21.5228 10.4772 26 16 26C21.5228 26 26 21.5228 26 16C26 14.5091 25.6744 13.097 25.0914 11.8286C24.8607 11.3268 25.0805 10.733 25.5824 10.5024C26.0842 10.2717 26.678 10.4915 26.9086 10.9933C27.6096 12.5184 28 14.215 28 16C28 22.6274 22.6274 28 16 28C9.37258 28 4 22.6274 4 16C4 9.37255 9.37258 3.99996 16 3.99996V5.99996Z" fill="#222222"/>
<path d="M16 8.93244V1.06748C16 0.643566 16.4944 0.411987 16.8201 0.683373L21.5391 4.61585C21.7789 4.81575 21.7789 5.18418 21.5391 5.38407L16.8201 9.31655C16.4944 9.58794 16 9.35636 16 8.93244Z" fill="#222222"/>
</svg>
