<svg width="100" height="100" viewBox="0 0 100 100" fill="none" xmlns="http://www.w3.org/2000/svg">
<g clip-path="url(#clip0_2_795)">
<path d="M69.8914 31.115H4.10864V89H69.8914V31.115Z" fill="#BBDDFC"/>
<path d="M74 31.115H0V46.8998H74V31.115Z" fill="#06539C"/>
<path d="M68.8892 16.1874C65.3596 11.1002 59.3581 9.61969 53.223 12.347C47.4776 14.8961 43.2242 19.4601 39.4718 23.4787C38.904 24.0909 38.3473 24.6809 37.8017 25.2486H35.7752C35.2296 24.6809 34.6729 24.0798 34.105 23.4787C30.3527 19.4601 26.0993 14.8961 20.3539 12.347C14.2188 9.61969 8.21726 11.1002 4.68762 16.1874C1.60335 20.629 2.69454 24.1132 4.16429 26.2616C7.92776 31.7607 18.6726 34.5659 26.9566 35.6011L10.4553 50.1058L14.0295 54.1688L34.2164 36.4249V89H39.6277V36.6475L59.5585 54.1688L63.1327 50.1058L46.6313 35.6011C54.9043 34.5659 65.6714 31.7607 69.4237 26.2616C70.8935 24.1243 71.9846 20.6401 68.9004 16.1874H68.8892ZM9.45319 23.4676C8.85192 22.5881 8.37314 21.2969 9.95424 19.0037C11.1679 17.2561 12.6043 16.3878 14.3635 16.3878C15.3322 16.3878 16.4011 16.6549 17.5814 17.1781C22.1577 19.2152 25.8098 23.1225 29.3506 26.9073C30.0632 27.6753 30.7981 28.4434 31.5329 29.2115V30.603C24.006 30.1689 12.2368 27.5306 9.46432 23.4676H9.45319ZM64.1348 23.4676C61.3846 27.4861 49.8492 30.1021 42.3223 30.5807V28.9444C42.9681 28.2653 43.6139 27.5752 44.2486 26.9073C47.7782 23.1225 51.4303 19.2041 56.0177 17.1781C57.1869 16.6549 58.2669 16.3878 59.2245 16.3878C60.9837 16.3878 62.4201 17.2449 63.6338 19.0037C65.226 21.2969 64.7361 22.5993 64.1459 23.4676H64.1348Z" fill="#212529"/>
<g opacity="0.2">
<path d="M4.10864 89.0001H4.48722L4.10864 88.6216V89.0001Z" fill="black"/>
</g>
</g>
<defs>
<clipPath id="clip0_2_795">
<rect width="74" height="78" fill="white" transform="translate(0 11)"/>
</clipPath>
</defs>
</svg>
