<svg width="101" height="100" viewBox="0 0 101 100" fill="none" xmlns="http://www.w3.org/2000/svg">
<path d="M42.0616 20.1818L34 25.8234L25.9384 20.1859C25.2659 19.7153 24.4772 19.4381 23.6581 19.3844C22.8391 19.3306 22.0209 19.5025 21.2927 19.8813C20.5645 20.2601 19.9541 20.8313 19.5278 21.5327C19.1016 22.2342 18.8758 23.0391 18.875 23.8599V29.3751H49.125V23.8599C49.125 23.0387 48.8997 22.2333 48.4738 21.5312C48.0478 20.8292 47.4375 20.2574 46.7091 19.8781C45.9808 19.4989 45.1623 19.3266 44.3429 19.3802C43.5235 19.4337 42.7344 19.711 42.0616 20.1818Z" fill="#212529"/>
<path d="M38.125 22.5H29.875V29.375H38.125V22.5Z" fill="#343A40"/>
<path d="M90.375 39.6875V31.4375C90.375 30.7082 90.0853 30.0087 89.5695 29.493C89.0538 28.9772 88.3543 28.6875 87.625 28.6875H13.375C12.6457 28.6875 11.9462 28.9772 11.4305 29.493C10.9147 30.0087 10.625 30.7082 10.625 31.4375V39.6875C13.36 39.6875 15.9831 40.774 17.917 42.708C19.851 44.6419 20.9375 47.265 20.9375 50C20.9375 52.735 19.851 55.3581 17.917 57.292C15.9831 59.226 13.36 60.3125 10.625 60.3125V67.1875C10.625 68.2815 11.0596 69.3307 11.8332 70.1043C12.6068 70.8779 13.656 71.3125 14.75 71.3125H86.25C87.344 71.3125 88.3932 70.8779 89.1668 70.1043C89.9404 69.3307 90.375 68.2815 90.375 67.1875V60.3125C87.64 60.3125 85.0169 59.226 83.083 57.292C81.149 55.3581 80.0625 52.735 80.0625 50C80.0625 47.265 81.149 44.6419 83.083 42.708C85.0169 40.774 87.64 39.6875 90.375 39.6875Z" fill="#3CA4F4"/>
<path d="M56 45.875C58.2782 45.875 60.125 44.0282 60.125 41.75C60.125 39.4718 58.2782 37.625 56 37.625C53.7218 37.625 51.875 39.4718 51.875 41.75C51.875 44.0282 53.7218 45.875 56 45.875Z" fill="white"/>
<path d="M72.5 62.375C74.7782 62.375 76.625 60.5282 76.625 58.25C76.625 55.9718 74.7782 54.125 72.5 54.125C70.2218 54.125 68.375 55.9718 68.375 58.25C68.375 60.5282 70.2218 62.375 72.5 62.375Z" fill="white"/>
<path d="M53.9375 60.3125C53.6673 60.0422 53.4532 59.7212 53.3075 59.3678C53.1618 59.0145 53.0874 58.6358 53.0885 58.2536C53.0897 57.8714 53.1664 57.4932 53.3142 57.1408C53.462 56.7883 53.678 56.4686 53.9499 56.1999L70.5557 39.8058C71.0744 39.3048 71.7691 39.0277 72.4901 39.0339C73.2111 39.0402 73.9009 39.3294 74.4107 39.8393C74.9206 40.3491 75.2098 41.0389 75.2161 41.7599C75.2224 42.481 74.9452 43.1756 74.4442 43.6943L58.0501 60.3001C57.7814 60.572 57.4617 60.788 57.1092 60.9358C56.7568 61.0837 56.3786 61.1604 55.9964 61.1615C55.6142 61.1627 55.2355 61.0882 54.8822 60.9425C54.5288 60.7968 54.2078 60.5827 53.9375 60.3125Z" fill="white"/>
<path d="M38.125 28.6875H29.875V71.3125H38.125V28.6875Z" fill="#212529"/>
</svg>
