<svg width="101" height="100" viewBox="0 0 101 100" fill="none" xmlns="http://www.w3.org/2000/svg">
<path d="M50.5 85.75C70.2442 85.75 86.25 69.7442 86.25 50C86.25 30.2558 70.2442 14.25 50.5 14.25C30.7558 14.25 14.75 30.2558 14.75 50C14.75 69.7442 30.7558 85.75 50.5 85.75Z" fill="url(#paint0_linear_2_768)"/>
<path d="M44.0001 66.25C43.1382 66.2498 42.3117 65.9073 41.7024 65.2977L31.9524 55.5477C31.3603 54.9348 31.0328 54.1138 31.0402 53.2617C31.0476 52.4095 31.3894 51.5944 31.9919 50.9918C32.5945 50.3892 33.4097 50.0474 34.2618 50.04C35.1139 50.0326 35.9349 50.3602 36.5479 50.9522L44.0001 58.4045L64.4524 37.9522C65.0653 37.3602 65.8863 37.0326 66.7384 37.04C67.5905 37.0474 68.4057 37.3892 69.0083 37.9918C69.6108 38.5944 69.9526 39.4095 69.96 40.2617C69.9674 41.1138 69.6399 41.9348 69.0479 42.5477L46.2979 65.2977C45.6885 65.9073 44.862 66.2498 44.0001 66.25Z" fill="white"/>
<defs>
<linearGradient id="paint0_linear_2_768" x1="50.5" y1="14.1102" x2="50.5" y2="85.6102" gradientUnits="userSpaceOnUse">
<stop stop-color="#3CA4F4"/>
<stop offset="1" stop-color="#06539C"/>
</linearGradient>
</defs>
</svg>
