<svg width="101" height="100" viewBox="0 0 101 100" fill="none" xmlns="http://www.w3.org/2000/svg">
<path d="M51.9999 12.0834C31.0699 12.0834 14.0833 29.0484 14.0833 50C14.0833 70.93 31.0699 87.9167 51.9999 87.9167C72.9299 87.9167 89.9166 70.9517 89.9166 50C89.9166 29.0484 72.9299 12.0834 51.9999 12.0834Z" fill="#F4F4F6"/>
<path d="M52 76C37.6567 76 26 64.3433 26 50C26 35.6567 37.6567 24 52 24C66.3433 24 78 35.6567 78 50C78 64.3433 66.3433 76 52 76Z" fill="url(#paint0_linear_2_746)"/>
<path d="M45.4391 42.512H43.6206C43.3888 42.512 43.2417 42.4808 43.1793 42.4184C43.1169 42.356 43.0857 42.2089 43.0857 41.9772V40.5598C43.0857 40.3013 43.1258 40.1408 43.206 40.0784C43.2952 40.0071 43.4646 39.9714 43.7142 39.9714H53.3951C54.6074 39.9714 55.7039 40.0918 56.6844 40.3325C57.665 40.5642 58.5074 40.9208 59.2116 41.4022C59.9248 41.8836 60.4686 42.4942 60.843 43.2341C61.2263 43.974 61.4179 44.8476 61.4179 45.8549C61.4179 46.8533 61.2263 47.7313 60.843 48.489C60.4686 49.2468 59.9248 49.8752 59.2116 50.3744C58.5074 50.8736 57.665 51.248 56.6844 51.4976C55.7039 51.7472 54.6074 51.872 53.3951 51.872H51.1754C50.8456 51.872 50.6406 51.9121 50.5603 51.9924C50.489 52.0726 50.4534 52.2732 50.4534 52.5941V56.7392C50.4534 57.069 50.4935 57.2785 50.5737 57.3677C50.6539 57.4479 50.859 57.488 51.1888 57.488H53.1544C53.3951 57.488 53.5377 57.5281 53.5823 57.6084C53.6358 57.6797 53.6625 57.8401 53.6625 58.0897V59.3333C53.6625 59.6185 53.6358 59.8057 53.5823 59.8949C53.5288 59.984 53.3594 60.0286 53.0742 60.0286H43.7676C43.5002 60.0286 43.3175 59.9974 43.2194 59.935C43.1303 59.8726 43.0857 59.6988 43.0857 59.4135V58.0095C43.0857 57.7866 43.1169 57.644 43.1793 57.5816C43.2417 57.5192 43.3843 57.488 43.6072 57.488H45.3321C45.6619 57.488 45.858 57.439 45.9204 57.3409C45.9918 57.2429 46.0274 57.0423 46.0274 56.7392V43.0068C46.0274 42.775 45.9873 42.6368 45.9071 42.5922C45.8358 42.5388 45.6798 42.512 45.4391 42.512ZM51.0684 49.3314H53.1276C54.2063 49.3314 55.0531 49.015 55.6682 48.3821C56.2833 47.7492 56.5908 46.9068 56.5908 45.8549C56.5908 44.7941 56.2833 43.974 55.6682 43.3945C55.0531 42.8062 54.2063 42.512 53.1276 42.512H50.8812C50.6851 42.512 50.5648 42.5566 50.5202 42.6457C50.4756 42.726 50.4534 42.8686 50.4534 43.0736V48.7431C50.4534 49.0016 50.489 49.1665 50.5603 49.2378C50.6316 49.3002 50.801 49.3314 51.0684 49.3314Z" fill="white"/>
<defs>
<linearGradient id="paint0_linear_2_746" x1="22.1223" y1="79.8777" x2="70.7059" y2="31.2941" gradientUnits="userSpaceOnUse">
<stop stop-color="#06539C"/>
<stop offset="1" stop-color="#3CA4F4"/>
</linearGradient>
</defs>
</svg>
