<svg width="261" height="260" viewBox="0 0 261 260" fill="none" xmlns="http://www.w3.org/2000/svg">
<mask id="mask0_2_361" style="mask-type:luminance" maskUnits="userSpaceOnUse" x="0" y="0" width="261" height="260">
<path d="M260.56 0H0.559998V260H260.56V0Z" fill="white"/>
</mask>
<g mask="url(#mask0_2_361)">
<path opacity="0.96" d="M34.2499 110.815C34.569 116.745 38.6107 120.614 44.5537 120.614C50.4966 120.614 54.4851 116.466 54.4851 110.855C54.4851 107.957 53.2886 105.377 51.1879 103.809C49.8584 102.825 48.4757 102.2 45.0855 101.176C42.0941 100.285 41.1102 99.8865 40.2194 99.1287C39.2888 98.2778 38.6639 96.8154 38.6639 95.2997C38.6639 92.0025 41.0703 89.5562 44.3675 89.5562C47.6647 89.5562 50.0313 91.8828 50.244 95.4459H53.6741C53.5412 90.1013 49.8451 86.5382 44.4473 86.5382C39.0495 86.5382 35.3002 90.2874 35.3002 95.4061C35.3002 97.6795 36.1511 99.8732 37.6269 101.243C38.9165 102.492 39.9402 102.971 43.7692 104.141C46.3485 104.952 47.7844 105.564 48.848 106.321C50.3238 107.345 51.1215 109.034 51.1215 111.041C51.1215 114.83 48.3561 117.596 44.6201 117.596C42.5328 117.596 40.5119 116.665 39.3154 115.149C38.3714 113.993 37.9726 112.876 37.7465 110.828H34.2233L34.2499 110.815Z" fill="#46515F"/>
<path opacity="0.96" d="M34.2499 110.815C34.569 116.745 38.6107 120.614 44.5537 120.614C50.4966 120.614 54.4851 116.466 54.4851 110.855C54.4851 107.957 53.2886 105.377 51.1879 103.809C49.8584 102.825 48.4757 102.2 45.0855 101.176C42.0941 100.285 41.1102 99.8865 40.2194 99.1287C39.2888 98.2778 38.6639 96.8154 38.6639 95.2997C38.6639 92.0025 41.0703 89.5562 44.3675 89.5562C47.6647 89.5562 50.0313 91.8828 50.244 95.4459H53.6741C53.5412 90.1013 49.8451 86.5382 44.4473 86.5382C39.0495 86.5382 35.3002 90.2874 35.3002 95.4061C35.3002 97.6795 36.1511 99.8732 37.6269 101.243C38.9165 102.492 39.9402 102.971 43.7692 104.141C46.3485 104.952 47.7844 105.564 48.848 106.321C50.3238 107.345 51.1215 109.034 51.1215 111.041C51.1215 114.83 48.3561 117.596 44.6201 117.596C42.5328 117.596 40.5119 116.665 39.3154 115.149C38.3714 113.993 37.9726 112.876 37.7465 110.828H34.2233L34.2499 110.815Z" stroke="#46515F" stroke-width="3.8"/>
<path d="M76.2227 120.029H79.5199V90.0878H89.2919V87.0964H66.4641V90.0878H76.2227V120.029Z" fill="#46515F"/>
<path d="M76.2227 120.029H79.5199V90.0878H89.2919V87.0964H66.4641V90.0878H76.2227V120.029Z" stroke="#46515F" stroke-width="3.8"/>
<path d="M108.078 106.773L114.539 92.2551L120.868 106.773H108.078ZM98.5453 120.042H102.015L106.828 111.174H122.157L126.93 120.042H130.533L116.361 87.1099H112.665L98.5453 120.042Z" fill="#46515F"/>
<path d="M108.078 106.773L114.539 92.2551L120.868 106.773H108.078ZM98.5453 120.042H102.015L106.828 111.174H122.157L126.93 120.042H130.533L116.361 87.1099H112.665L98.5453 120.042Z" stroke="#46515F" stroke-width="3.8"/>
<path d="M142.885 120.029H146.182V90.7127L158.533 120.029H161.378L173.769 90.7127V120.029H177.066V87.0964H171.948L159.995 115.136L148.017 87.0964H142.885V120.029Z" fill="#46515F"/>
<path d="M142.885 120.029H146.182V90.7127L158.533 120.029H161.378L173.769 90.7127V120.029H177.066V87.0964H171.948L159.995 115.136L148.017 87.0964H142.885V120.029Z" stroke="#46515F" stroke-width="3.8"/>
<path d="M195.64 103.715V90.0745H200.32C204.109 90.0745 206.475 90.3804 207.805 91.0584C209.719 92.0422 210.796 94.1296 210.796 97.0811C210.796 99.6205 209.773 101.668 208.084 102.612C206.701 103.41 204.787 103.729 201.756 103.729H195.653L195.64 103.715ZM192.343 120.029H195.64V106.707H201.968C206.422 106.707 208.829 106.135 210.836 104.659C212.977 103.104 214.133 100.392 214.133 97.0811C214.133 93.292 212.711 90.3006 210.211 88.8381C208.164 87.5884 205.664 87.0964 201.436 87.0964H192.343V120.029Z" fill="#46515F"/>
<path d="M195.64 103.715V90.0745H200.32C204.109 90.0745 206.475 90.3804 207.805 91.0584C209.719 92.0422 210.796 94.1296 210.796 97.0811C210.796 99.6205 209.773 101.668 208.084 102.612C206.701 103.41 204.787 103.729 201.756 103.729H195.653L195.64 103.715ZM192.343 120.029H195.64V106.707H201.968C206.422 106.707 208.829 106.135 210.836 104.659C212.977 103.104 214.133 100.392 214.133 97.0811C214.133 93.292 212.711 90.3006 210.211 88.8381C208.164 87.5884 205.664 87.0964 201.436 87.0964H192.343V120.029Z" stroke="#46515F" stroke-width="3.8"/>
<path d="M88.0953 168.982H91.3925V153.506H108.464V168.982H111.761V136.036H108.464V150.528H91.3925V136.036H88.0953V168.982Z" fill="#46515F"/>
<path opacity="0.96" d="M88.0953 168.982H91.3925V153.506H108.464V168.982H111.761V136.036H108.464V150.528H91.3925V136.036H88.0953V168.982Z" stroke="#46515F" stroke-width="3.8"/>
<path d="M125.242 168.982H143.244V165.99H128.539V153.825H142.765V150.834H128.539V139.028H143.244V136.036H125.242V168.982Z" fill="#46515F"/>
<path d="M125.242 168.982H143.244V165.99H128.539V153.825H142.765V150.834H128.539V139.028H143.244V136.036H125.242V168.982Z" stroke="#46515F" stroke-width="3.8"/>
<path d="M168.385 156.67C174.713 156.005 178.103 152.482 178.103 146.646C178.103 142.498 176.362 139.387 173.158 137.645C171.11 136.528 168.252 136.036 163.931 136.036H155.781V168.968H159.078V139.014H163.705C167.188 139.014 169.501 139.373 171.283 140.224C173.517 141.288 174.753 143.521 174.753 146.513C174.753 150.262 173.065 152.575 169.767 153.466C168.212 153.865 166.071 154.038 162.415 154.038L173.517 168.968H177.625L168.398 156.67H168.385Z" fill="#46515F"/>
<path d="M168.385 156.67C174.713 156.005 178.103 152.482 178.103 146.646C178.103 142.498 176.362 139.387 173.158 137.645C171.11 136.528 168.252 136.036 163.931 136.036H155.781V168.968H159.078V139.014H163.705C167.188 139.014 169.501 139.373 171.283 140.224C173.517 141.288 174.753 143.521 174.753 146.513C174.753 150.262 173.065 152.575 169.767 153.466C168.212 153.865 166.071 154.038 162.415 154.038L173.517 168.968H177.625L168.398 156.67H168.385Z" stroke="#46515F" stroke-width="3.8"/>
<path d="M191.758 168.982H209.759V165.99H195.055V153.825H209.281V150.834H195.055V139.028H209.759V136.036H191.758V168.982Z" fill="#46515F"/>
<path d="M191.758 168.982H209.759V165.99H195.055V153.825H209.281V150.834H195.055V139.028H209.759V136.036H191.758V168.982Z" stroke="#46515F" stroke-width="3.8"/>
<g opacity="0.96">
<mask id="mask1_2_361" style="mask-type:luminance" maskUnits="userSpaceOnUse" x="-240" y="-415" width="793" height="1120">
<path d="M552.774 -414.955H-239.617V704.497H552.774V-414.955Z" fill="white"/>
</mask>
<g mask="url(#mask1_2_361)">
<path opacity="0.96" d="M126.425 18.3339C187.623 18.3339 237.227 67.9514 237.227 129.136C237.227 190.32 187.623 239.937 126.425 239.937C97.0297 239.937 68.8572 228.264 48.0769 207.484C27.2966 186.704 15.6234 158.518 15.6234 129.136C15.6234 99.7534 27.2966 71.5677 48.0769 50.7874C68.8572 30.0071 97.043 18.3339 126.425 18.3339ZM126.425 9.78516C94.7695 9.78516 64.4166 22.3624 42.0276 44.7381C19.6386 67.1271 7.06134 97.4799 7.06134 129.136C7.06134 160.791 19.6386 191.144 42.0276 213.533C64.4166 235.922 94.7695 248.486 126.425 248.486C192.343 248.486 245.776 195.053 245.776 129.136C245.776 63.2183 192.343 9.78516 126.425 9.78516Z" fill="#46515F"/>
</g>
</g>
<g opacity="0.96">
<mask id="mask2_2_361" style="mask-type:luminance" maskUnits="userSpaceOnUse" x="-240" y="-415" width="793" height="1120">
<path d="M552.774 -414.955H-239.617V704.497H552.774V-414.955Z" fill="white"/>
</mask>
<g mask="url(#mask2_2_361)">
<path d="M37.5737 187.502C57.1841 217.495 90.5947 235.59 126.438 235.617C162.296 235.603 195.72 217.509 215.343 187.502H206.023C187.477 212.922 157.908 227.972 126.438 228.012C94.9821 227.959 65.4137 212.922 46.867 187.502H37.5737ZM126.438 23.0405C89.7572 23.0671 55.6817 41.9994 36.2974 73.1366H45.3647C63.7917 46.533 94.0914 30.6587 126.452 30.6454C158.772 30.6985 189.019 46.5596 207.433 73.1366H216.513C197.142 42.026 163.107 23.0937 126.452 23.0405H126.438Z" fill="#46515F"/>
</g>
</g>
<g opacity="0.96">
<mask id="mask3_2_361" style="mask-type:luminance" maskUnits="userSpaceOnUse" x="-240" y="-415" width="793" height="1120">
<path d="M552.774 -414.955H-239.617V704.497H552.774V-414.955Z" fill="white"/>
</mask>
<g mask="url(#mask3_2_361)">
<path d="M38.4649 136.461H38.1985V168.091H38.4649V136.461Z" fill="#F68C3A"/>
<path d="M38.4649 136.461H38.1985V168.091H38.4649V136.461Z" stroke="#F68C3A" stroke-width="5.11"/>
</g>
</g>
<g opacity="0.96">
<mask id="mask4_2_361" style="mask-type:luminance" maskUnits="userSpaceOnUse" x="-240" y="-415" width="793" height="1120">
<path d="M552.774 -414.955H-239.617V704.497H552.774V-414.955Z" fill="white"/>
</mask>
<g mask="url(#mask4_2_361)">
<path d="M47.133 134.8H47.0665V169.766H47.133V134.8Z" fill="#46515F"/>
<path d="M47.133 134.8H47.0665V169.766H47.133V134.8Z" stroke="#46515F" stroke-width="2.6"/>
</g>
</g>
<g opacity="0.96">
<mask id="mask5_2_361" style="mask-type:luminance" maskUnits="userSpaceOnUse" x="-240" y="-415" width="793" height="1120">
<path d="M552.774 -414.955H-239.617V704.497H552.774V-414.955Z" fill="white"/>
</mask>
<g mask="url(#mask5_2_361)">
<path d="M52.3314 133.696V170.856V133.696Z" stroke="#46515F" stroke-width="0.95"/>
</g>
</g>
<g opacity="0.96">
<mask id="mask6_2_361" style="mask-type:luminance" maskUnits="userSpaceOnUse" x="-240" y="-415" width="793" height="1120">
<path d="M552.774 -414.955H-239.617V704.497H552.774V-414.955Z" fill="white"/>
</mask>
<g mask="url(#mask6_2_361)">
<path d="M58.2875 133.669V170.829V133.669Z" stroke="#46515F" stroke-width="0.95"/>
</g>
</g>
<g opacity="0.96">
<mask id="mask7_2_361" style="mask-type:luminance" maskUnits="userSpaceOnUse" x="-240" y="-415" width="793" height="1120">
<path d="M552.774 -414.955H-239.617V704.497H552.774V-414.955Z" fill="white"/>
</mask>
<g mask="url(#mask7_2_361)">
<path d="M68.8838 133.656V170.816V133.656Z" stroke="#46515F" stroke-width="0.95"/>
</g>
</g>
<g opacity="0.96">
<mask id="mask8_2_361" style="mask-type:luminance" maskUnits="userSpaceOnUse" x="-240" y="-415" width="793" height="1120">
<path d="M552.774 -414.955H-239.617V704.497H552.774V-414.955Z" fill="white"/>
</mask>
<g mask="url(#mask8_2_361)">
<path d="M63.7523 136.342H63.486V167.971H63.7523V136.342Z" fill="#46515F"/>
<path d="M63.7523 136.342H63.486V167.971H63.7523V136.342Z" stroke="#46515F" stroke-width="5.11"/>
</g>
</g>
<g opacity="0.96">
<mask id="mask9_2_361" style="mask-type:luminance" maskUnits="userSpaceOnUse" x="-240" y="-415" width="793" height="1120">
<path d="M552.774 -414.955H-239.617V704.497H552.774V-414.955Z" fill="white"/>
</mask>
<g mask="url(#mask9_2_361)">
<path d="M73.9758 133.63V170.79V133.63Z" stroke="#46515F" stroke-width="0.95"/>
</g>
</g>
<g opacity="0.96">
<mask id="mask10_2_361" style="mask-type:luminance" maskUnits="userSpaceOnUse" x="-240" y="-415" width="793" height="1120">
<path d="M552.774 -414.955H-239.617V704.497H552.774V-414.955Z" fill="white"/>
</mask>
<g mask="url(#mask10_2_361)">
<path opacity="0.96" d="M129.656 51.399C129.656 53.6459 127.834 55.4673 125.588 55.4673C123.341 55.4673 121.519 53.6459 121.519 51.399C121.519 49.1521 123.341 47.3307 125.588 47.3307C127.834 47.3307 129.656 49.1521 129.656 51.399Z" fill="#F68D3A"/>
</g>
</g>
<g opacity="0.96">
<mask id="mask11_2_361" style="mask-type:luminance" maskUnits="userSpaceOnUse" x="-240" y="-415" width="793" height="1120">
<path d="M552.774 -414.955H-239.617V704.497H552.774V-414.955Z" fill="white"/>
</mask>
<g mask="url(#mask11_2_361)">
<path opacity="0.96" d="M150.862 54.0581C150.862 56.3049 149.04 58.1264 146.793 58.1264C144.547 58.1264 142.725 56.3049 142.725 54.0581C142.725 51.8112 144.547 49.9897 146.793 49.9897C149.04 49.9897 150.862 51.8112 150.862 54.0581Z" fill="#F68D3A"/>
</g>
</g>
<g opacity="0.96">
<mask id="mask12_2_361" style="mask-type:luminance" maskUnits="userSpaceOnUse" x="-240" y="-415" width="793" height="1120">
<path d="M552.774 -414.955H-239.617V704.497H552.774V-414.955Z" fill="white"/>
</mask>
<g mask="url(#mask12_2_361)">
<path opacity="0.96" d="M109.647 54.0581C109.647 56.3049 107.825 58.1264 105.578 58.1264C103.332 58.1264 101.51 56.3049 101.51 54.0581C101.51 51.8112 103.332 49.9897 105.578 49.9897C107.825 49.9897 109.647 51.8112 109.647 54.0581Z" fill="#F68D3A"/>
</g>
</g>
<g opacity="0.96">
<mask id="mask13_2_361" style="mask-type:luminance" maskUnits="userSpaceOnUse" x="-240" y="-415" width="793" height="1120">
<path d="M552.774 -414.955H-239.617V704.497H552.774V-414.955Z" fill="white"/>
</mask>
<g mask="url(#mask13_2_361)">
<path opacity="0.96" d="M130.361 212.935C130.361 210.688 128.539 208.867 126.292 208.867C124.045 208.867 122.224 210.688 122.224 212.935C122.224 215.182 124.045 217.003 126.292 217.003C128.539 217.003 130.361 215.182 130.361 212.935Z" fill="#F68D3A"/>
</g>
</g>
<g opacity="0.96">
<mask id="mask14_2_361" style="mask-type:luminance" maskUnits="userSpaceOnUse" x="-240" y="-415" width="793" height="1120">
<path d="M552.774 -414.955H-239.617V704.497H552.774V-414.955Z" fill="white"/>
</mask>
<g mask="url(#mask14_2_361)">
<path opacity="0.96" d="M151.566 210.276C151.566 208.029 149.745 206.208 147.498 206.208C145.251 206.208 143.43 208.029 143.43 210.276C143.43 212.523 145.251 214.344 147.498 214.344C149.745 214.344 151.566 212.523 151.566 210.276Z" fill="#F68D3A"/>
</g>
</g>
<g opacity="0.96">
<mask id="mask15_2_361" style="mask-type:luminance" maskUnits="userSpaceOnUse" x="-240" y="-415" width="793" height="1120">
<path d="M552.774 -414.955H-239.617V704.497H552.774V-414.955Z" fill="white"/>
</mask>
<g mask="url(#mask15_2_361)">
<path opacity="0.96" d="M110.351 210.276C110.351 208.029 108.53 206.208 106.283 206.208C104.036 206.208 102.215 208.029 102.215 210.276C102.215 212.523 104.036 214.344 106.283 214.344C108.53 214.344 110.351 212.523 110.351 210.276Z" fill="#F68D3A"/>
</g>
</g>
</g>
</svg>
